<svg viewBox="0 0 37 37" width="256" height="256" fill="#ffffff" shape-rendering="crispEdges" xmlns="http://www.w3.org/2000/svg" version="1.1"><path transform="matrix(1,0,0,1,4,4)" d="M23,28h4v1h-4v-1zM19,28h1v1h-1v-1zM17,28h1v1h-1v-1zM8,28h7v1h-7v-1zM0,28h7v1h-7v-1zM27,27h1v1h-1v-1zM25,27h1v1h-1v-1zM23,27h1v1h-1v-1zM20,27h1v1h-1v-1zM18,27h1v1h-1v-1zM16,27h1v1h-1v-1zM10,27h2v1h-2v-1zM8,27h1v1h-1v-1zM6,27h1v1h-1v-1zM0,27h1v1h-1v-1zM18,26h10v1h-10v-1zM15,26h2v1h-2v-1zM13,26h1v1h-1v-1zM10,26h1v1h-1v-1zM8,26h1v1h-1v-1zM6,26h1v1h-1v-1zM2,26h3v1h-3v-1zM0,26h1v1h-1v-1zM28,25h1v1h-1v-1zM25,25h2v1h-2v-1zM23,25h1v1h-1v-1zM20,25h1v1h-1v-1zM16,25h1v1h-1v-1zM14,25h1v1h-1v-1zM10,25h2v1h-2v-1zM8,25h1v1h-1v-1zM6,25h1v1h-1v-1zM2,25h3v1h-3v-1zM0,25h1v1h-1v-1zM26,24h1v1h-1v-1zM20,24h5v1h-5v-1zM12,24h6v1h-6v-1zM8,24h2v1h-2v-1zM6,24h1v1h-1v-1zM2,24h3v1h-3v-1zM0,24h1v1h-1v-1zM27,23h1v1h-1v-1zM24,23h1v1h-1v-1zM19,23h2v1h-2v-1zM10,23h1v1h-1v-1zM6,23h1v1h-1v-1zM0,23h1v1h-1v-1zM24,22h3v1h-3v-1zM22,22h1v1h-1v-1zM19,22h2v1h-2v-1zM15,22h3v1h-3v-1zM12,22h1v1h-1v-1zM8,22h2v1h-2v-1zM0,22h7v1h-7v-1zM24,21h5v1h-5v-1zM20,21h1v1h-1v-1zM16,21h3v1h-3v-1zM14,21h1v1h-1v-1zM10,21h2v1h-2v-1zM8,21h1v1h-1v-1zM26,20h3v1h-3v-1zM20,20h5v1h-5v-1zM13,20h6v1h-6v-1zM8,20h1v1h-1v-1zM5,20h2v1h-2v-1zM2,20h2v1h-2v-1zM0,20h1v1h-1v-1zM27,19h1v1h-1v-1zM22,19h3v1h-3v-1zM20,19h1v1h-1v-1zM15,19h2v1h-2v-1zM8,19h3v1h-3v-1zM0,19h1v1h-1v-1zM26,18h1v1h-1v-1zM23,18h1v1h-1v-1zM21,18h1v1h-1v-1zM13,18h3v1h-3v-1zM6,18h1v1h-1v-1zM2,18h1v1h-1v-1zM0,18h1v1h-1v-1zM28,17h1v1h-1v-1zM26,17h1v1h-1v-1zM22,17h3v1h-3v-1zM16,17h5v1h-5v-1zM13,17h1v1h-1v-1zM9,17h3v1h-3v-1zM7,17h1v1h-1v-1zM3,17h3v1h-3v-1zM0,17h2v1h-2v-1zM25,16h2v1h-2v-1zM23,16h1v1h-1v-1zM19,16h1v1h-1v-1zM12,16h6v1h-6v-1zM4,16h6v1h-6v-1zM0,16h3v1h-3v-1zM27,15h1v1h-1v-1zM23,15h2v1h-2v-1zM14,15h1v1h-1v-1zM10,15h3v1h-3v-1zM7,15h1v1h-1v-1zM5,15h1v1h-1v-1zM3,15h1v1h-1v-1zM1,15h1v1h-1v-1zM25,14h2v1h-2v-1zM23,14h1v1h-1v-1zM20,14h2v1h-2v-1zM15,14h3v1h-3v-1zM6,14h4v1h-4v-1zM1,14h3v1h-3v-1zM28,13h1v1h-1v-1zM24,13h1v1h-1v-1zM17,13h6v1h-6v-1zM13,13h1v1h-1v-1zM11,13h1v1h-1v-1zM9,13h1v1h-1v-1zM7,13h1v1h-1v-1zM5,13h1v1h-1v-1zM2,13h2v1h-2v-1zM0,13h1v1h-1v-1zM25,12h2v1h-2v-1zM19,12h1v1h-1v-1zM17,12h1v1h-1v-1zM13,12h2v1h-2v-1zM9,12h2v1h-2v-1zM6,12h2v1h-2v-1zM0,12h1v1h-1v-1zM27,11h1v1h-1v-1zM25,11h1v1h-1v-1zM23,11h1v1h-1v-1zM19,11h2v1h-2v-1zM16,11h1v1h-1v-1zM14,11h1v1h-1v-1zM4,11h2v1h-2v-1zM0,11h2v1h-2v-1zM21,10h2v1h-2v-1zM15,10h4v1h-4v-1zM12,10h2v1h-2v-1zM10,10h1v1h-1v-1zM5,10h4v1h-4v-1zM3,10h1v1h-1v-1zM0,10h1v1h-1v-1zM28,9h1v1h-1v-1zM22,9h3v1h-3v-1zM18,9h3v1h-3v-1zM16,9h1v1h-1v-1zM11,9h1v1h-1v-1zM7,9h2v1h-2v-1zM1,9h5v1h-5v-1zM27,8h1v1h-1v-1zM25,8h1v1h-1v-1zM23,8h1v1h-1v-1zM21,8h1v1h-1v-1zM19,8h1v1h-1v-1zM17,8h1v1h-1v-1zM11,8h4v1h-4v-1zM6,8h4v1h-4v-1zM0,8h5v1h-5v-1zM18,7h2v1h-2v-1zM14,7h3v1h-3v-1zM12,7h1v1h-1v-1zM9,7h2v1h-2v-1zM22,6h7v1h-7v-1zM20,6h1v1h-1v-1zM18,6h1v1h-1v-1zM16,6h1v1h-1v-1zM14,6h1v1h-1v-1zM12,6h1v1h-1v-1zM10,6h1v1h-1v-1zM8,6h1v1h-1v-1zM0,6h7v1h-7v-1zM28,5h1v1h-1v-1zM22,5h1v1h-1v-1zM20,5h1v1h-1v-1zM15,5h3v1h-3v-1zM10,5h1v1h-1v-1zM8,5h1v1h-1v-1zM6,5h1v1h-1v-1zM0,5h1v1h-1v-1zM28,4h1v1h-1v-1zM24,4h3v1h-3v-1zM22,4h1v1h-1v-1zM16,4h5v1h-5v-1zM13,4h1v1h-1v-1zM11,4h1v1h-1v-1zM6,4h1v1h-1v-1zM2,4h3v1h-3v-1zM0,4h1v1h-1v-1zM28,3h1v1h-1v-1zM24,3h3v1h-3v-1zM22,3h1v1h-1v-1zM17,3h3v1h-3v-1zM11,3h5v1h-5v-1zM8,3h1v1h-1v-1zM6,3h1v1h-1v-1zM2,3h3v1h-3v-1zM0,3h1v1h-1v-1zM28,2h1v1h-1v-1zM24,2h3v1h-3v-1zM22,2h1v1h-1v-1zM18,2h3v1h-3v-1zM14,2h2v1h-2v-1zM11,2h1v1h-1v-1zM9,2h1v1h-1v-1zM6,2h1v1h-1v-1zM2,2h3v1h-3v-1zM0,2h1v1h-1v-1zM28,1h1v1h-1v-1zM22,1h1v1h-1v-1zM20,1h1v1h-1v-1zM13,1h5v1h-5v-1zM10,1h1v1h-1v-1zM8,1h1v1h-1v-1zM6,1h1v1h-1v-1zM0,1h1v1h-1v-1zM22,0h7v1h-7v-1zM19,0h2v1h-2v-1zM16,0h1v1h-1v-1zM11,0h1v1h-1v-1zM0,0h7v1h-7v-1z"></path></svg>