<svg viewBox="0 0 33 33" width="256" height="256" fill="#ffffff" shape-rendering="crispEdges" xmlns="http://www.w3.org/2000/svg" version="1.1"><path transform="matrix(1,0,0,1,4,4)" d="M23,24h2v1h-2v-1zM19,24h1v1h-1v-1zM14,24h4v1h-4v-1zM8,24h5v1h-5v-1zM0,24h7v1h-7v-1zM23,23h1v1h-1v-1zM20,23h2v1h-2v-1zM16,23h1v1h-1v-1zM12,23h2v1h-2v-1zM8,23h3v1h-3v-1zM6,23h1v1h-1v-1zM0,23h1v1h-1v-1zM24,22h1v1h-1v-1zM20,22h1v1h-1v-1zM16,22h1v1h-1v-1zM8,22h6v1h-6v-1zM6,22h1v1h-1v-1zM2,22h3v1h-3v-1zM0,22h1v1h-1v-1zM19,21h4v1h-4v-1zM11,21h6v1h-6v-1zM9,21h1v1h-1v-1zM6,21h1v1h-1v-1zM2,21h3v1h-3v-1zM0,21h1v1h-1v-1zM23,20h2v1h-2v-1zM16,20h6v1h-6v-1zM12,20h2v1h-2v-1zM8,20h1v1h-1v-1zM6,20h1v1h-1v-1zM2,20h3v1h-3v-1zM0,20h1v1h-1v-1zM24,19h1v1h-1v-1zM20,19h2v1h-2v-1zM16,19h1v1h-1v-1zM13,19h2v1h-2v-1zM11,19h1v1h-1v-1zM8,19h2v1h-2v-1zM6,19h1v1h-1v-1zM0,19h1v1h-1v-1zM23,18h2v1h-2v-1zM20,18h2v1h-2v-1zM18,18h1v1h-1v-1zM15,18h2v1h-2v-1zM8,18h3v1h-3v-1zM0,18h7v1h-7v-1zM23,17h2v1h-2v-1zM20,17h2v1h-2v-1zM15,17h2v1h-2v-1zM13,17h1v1h-1v-1zM11,17h1v1h-1v-1zM8,17h2v1h-2v-1zM16,16h6v1h-6v-1zM13,16h1v1h-1v-1zM9,16h3v1h-3v-1zM4,16h4v1h-4v-1zM2,16h1v1h-1v-1zM0,16h1v1h-1v-1zM23,15h1v1h-1v-1zM20,15h1v1h-1v-1zM18,15h1v1h-1v-1zM15,15h1v1h-1v-1zM12,15h2v1h-2v-1zM9,15h1v1h-1v-1zM4,15h1v1h-1v-1zM1,15h2v1h-2v-1zM22,14h3v1h-3v-1zM19,14h1v1h-1v-1zM17,14h1v1h-1v-1zM10,14h3v1h-3v-1zM3,14h4v1h-4v-1zM0,14h1v1h-1v-1zM24,13h1v1h-1v-1zM21,13h1v1h-1v-1zM16,13h3v1h-3v-1zM11,13h3v1h-3v-1zM4,13h2v1h-2v-1zM23,12h2v1h-2v-1zM21,12h1v1h-1v-1zM15,12h5v1h-5v-1zM12,12h2v1h-2v-1zM4,12h5v1h-5v-1zM0,12h3v1h-3v-1zM23,11h1v1h-1v-1zM15,11h5v1h-5v-1zM13,11h1v1h-1v-1zM11,11h1v1h-1v-1zM7,11h2v1h-2v-1zM4,11h1v1h-1v-1zM2,11h1v1h-1v-1zM0,11h1v1h-1v-1zM22,10h3v1h-3v-1zM20,10h1v1h-1v-1zM18,10h1v1h-1v-1zM13,10h1v1h-1v-1zM6,10h4v1h-4v-1zM0,10h3v1h-3v-1zM24,9h1v1h-1v-1zM18,9h1v1h-1v-1zM16,9h1v1h-1v-1zM10,9h2v1h-2v-1zM8,9h1v1h-1v-1zM2,9h3v1h-3v-1zM22,8h1v1h-1v-1zM13,8h6v1h-6v-1zM10,8h2v1h-2v-1zM4,8h5v1h-5v-1zM0,8h3v1h-3v-1zM12,7h5v1h-5v-1zM8,7h3v1h-3v-1zM18,6h7v1h-7v-1zM16,6h1v1h-1v-1zM14,6h1v1h-1v-1zM12,6h1v1h-1v-1zM10,6h1v1h-1v-1zM8,6h1v1h-1v-1zM0,6h7v1h-7v-1zM24,5h1v1h-1v-1zM18,5h1v1h-1v-1zM14,5h3v1h-3v-1zM9,5h1v1h-1v-1zM6,5h1v1h-1v-1zM0,5h1v1h-1v-1zM24,4h1v1h-1v-1zM20,4h3v1h-3v-1zM18,4h1v1h-1v-1zM14,4h2v1h-2v-1zM10,4h1v1h-1v-1zM6,4h1v1h-1v-1zM2,4h3v1h-3v-1zM0,4h1v1h-1v-1zM24,3h1v1h-1v-1zM20,3h3v1h-3v-1zM18,3h1v1h-1v-1zM14,3h1v1h-1v-1zM9,3h3v1h-3v-1zM6,3h1v1h-1v-1zM2,3h3v1h-3v-1zM0,3h1v1h-1v-1zM24,2h1v1h-1v-1zM20,2h3v1h-3v-1zM18,2h1v1h-1v-1zM16,2h1v1h-1v-1zM14,2h1v1h-1v-1zM12,2h1v1h-1v-1zM8,2h3v1h-3v-1zM6,2h1v1h-1v-1zM2,2h3v1h-3v-1zM0,2h1v1h-1v-1zM24,1h1v1h-1v-1zM18,1h1v1h-1v-1zM14,1h3v1h-3v-1zM10,1h3v1h-3v-1zM6,1h1v1h-1v-1zM0,1h1v1h-1v-1zM18,0h7v1h-7v-1zM12,0h4v1h-4v-1zM9,0h1v1h-1v-1zM0,0h7v1h-7v-1z"></path></svg>